<?xml version="1.0" encoding="UTF-8"?>
<!DOCTYPE svg PUBLIC "-//W3C//DTD SVG 1.1//EN" "http://www.w3.org/Graphics/SVG/1.1/DTD/svg11.dtd">
<svg version="1.2" width="279.4mm" height="130mm" viewBox="0 0 27940 13000" preserveAspectRatio="xMidYMid" fill-rule="evenodd" stroke-width="28.222" stroke-linejoin="round" xmlns="http://www.w3.org/2000/svg" xmlns:ooo="http://xml.openoffice.org/svg/export" xmlns:xlink="http://www.w3.org/1999/xlink" xmlns:presentation="http://sun.com/xmlns/staroffice/presentation" xmlns:smil="http://www.w3.org/2001/SMIL20/" xmlns:anim="urn:oasis:names:tc:opendocument:xmlns:animation:1.0" xml:space="preserve">
 <defs class="ClipPathGroup">
  <clipPath id="presentation_clip_path" clipPathUnits="userSpaceOnUse">
   <rect x="0" y="0" width="27940" height="13000"/>
  </clipPath>
  <clipPath id="presentation_clip_path_shrink" clipPathUnits="userSpaceOnUse">
   <rect x="27" y="13" width="27885" height="12974"/>
  </clipPath>
 </defs>
 <defs class="TextShapeIndex">
  <g ooo:slide="id1" ooo:id-list="id3 id4 id5 id6 id7 id8 id9 id10 id11 id12 id13 id14 id15 id16 id17 id18 id19 id20 id21 id22 id23 id24 id25 id26 id27 id28 id29 id30 id31 id32 id33 id34 id35 id36"/>
 </defs>
 <defs class="EmbeddedBulletChars">
  <g id="bullet-char-template-57356" transform="scale(0.00048828125,-0.00048828125)">
   <path d="M 580,1141 L 1163,571 580,0 -4,571 580,1141 Z"/>
  </g>
  <g id="bullet-char-template-57354" transform="scale(0.00048828125,-0.00048828125)">
   <path d="M 8,1128 L 1137,1128 1137,0 8,0 8,1128 Z"/>
  </g>
  <g id="bullet-char-template-10146" transform="scale(0.00048828125,-0.00048828125)">
   <path d="M 174,0 L 602,739 174,1481 1456,739 174,0 Z M 1358,739 L 309,1346 659,739 1358,739 Z"/>
  </g>
  <g id="bullet-char-template-10132" transform="scale(0.00048828125,-0.00048828125)">
   <path d="M 2015,739 L 1276,0 717,0 1260,543 174,543 174,936 1260,936 717,1481 1274,1481 2015,739 Z"/>
  </g>
  <g id="bullet-char-template-10007" transform="scale(0.00048828125,-0.00048828125)">
   <path d="M 0,-2 C -7,14 -16,27 -25,37 L 356,567 C 262,823 215,952 215,954 215,979 228,992 255,992 264,992 276,990 289,987 310,991 331,999 354,1012 L 381,999 492,748 772,1049 836,1024 860,1049 C 881,1039 901,1025 922,1006 886,937 835,863 770,784 769,783 710,716 594,584 L 774,223 C 774,196 753,168 711,139 L 727,119 C 717,90 699,76 672,76 641,76 570,178 457,381 L 164,-76 C 142,-110 111,-127 72,-127 30,-127 9,-110 8,-76 1,-67 -2,-52 -2,-32 -2,-23 -1,-13 0,-2 Z"/>
  </g>
  <g id="bullet-char-template-10004" transform="scale(0.00048828125,-0.00048828125)">
   <path d="M 285,-33 C 182,-33 111,30 74,156 52,228 41,333 41,471 41,549 55,616 82,672 116,743 169,778 240,778 293,778 328,747 346,684 L 369,508 C 377,444 397,411 428,410 L 1163,1116 C 1174,1127 1196,1133 1229,1133 1271,1133 1292,1118 1292,1087 L 1292,965 C 1292,929 1282,901 1262,881 L 442,47 C 390,-6 338,-33 285,-33 Z"/>
  </g>
  <g id="bullet-char-template-9679" transform="scale(0.00048828125,-0.00048828125)">
   <path d="M 813,0 C 632,0 489,54 383,161 276,268 223,411 223,592 223,773 276,916 383,1023 489,1130 632,1184 813,1184 992,1184 1136,1130 1245,1023 1353,916 1407,772 1407,592 1407,412 1353,268 1245,161 1136,54 992,0 813,0 Z"/>
  </g>
  <g id="bullet-char-template-8226" transform="scale(0.00048828125,-0.00048828125)">
   <path d="M 346,457 C 273,457 209,483 155,535 101,586 74,649 74,723 74,796 101,859 155,911 209,963 273,989 346,989 419,989 480,963 531,910 582,859 608,796 608,723 608,648 583,586 532,535 482,483 420,457 346,457 Z"/>
  </g>
  <g id="bullet-char-template-8211" transform="scale(0.00048828125,-0.00048828125)">
   <path d="M -4,459 L 1135,459 1135,606 -4,606 -4,459 Z"/>
  </g>
  <g id="bullet-char-template-61548" transform="scale(0.00048828125,-0.00048828125)">
   <path d="M 173,740 C 173,903 231,1043 346,1159 462,1274 601,1332 765,1332 928,1332 1067,1274 1183,1159 1299,1043 1357,903 1357,740 1357,577 1299,437 1183,322 1067,206 928,148 765,148 601,148 462,206 346,322 231,437 173,577 173,740 Z"/>
  </g>
 </defs>
 <g>
  <g id="id2" class="Master_Slide">
   <g id="bg-id2" class="Background"/>
   <g id="bo-id2" class="BackgroundObjects"/>
  </g>
 </g>
 <g class="SlideGroup">
  <g>
   <g id="container-id1">
    <g id="id1" class="Slide" clip-path="url(#presentation_clip_path)">
     <g class="Page">
      <g class="Group">
       <g class="com.sun.star.drawing.PolyPolygonShape">
        <g id="id3">
         <rect class="BoundingBox" stroke="none" fill="none" x="16338" y="1500" width="11763" height="11656"/>
         <path fill="rgb(17,17,17)" fill-opacity="0.878" stroke="rgb(255,255,255)" stroke-opacity="0.878" d="M 16338,6932 L 18419,3871 20390,3377 22581,1994 25318,1500 28100,2093 28100,13155 16338,13155 16338,9007 16338,6932 Z"/>
        </g>
       </g>
       <g class="com.sun.star.drawing.PolyPolygonShape">
        <g id="id4">
         <rect class="BoundingBox" stroke="none" fill="none" x="13493" y="3100" width="987" height="1401"/>
         <path fill="rgb(28,28,28)" stroke="none" d="M 13930,4500 L 13930,4173 13494,4173 13682,3907 13514,3907 13739,3611 13626,3611 13996,3100 14367,3611 14234,3611 14458,3907 14290,3907 14479,4173 14052,4173 14052,4500 13930,4500 Z"/>
        </g>
       </g>
       <g class="com.sun.star.drawing.PolyPolygonShape">
        <g id="id5">
         <rect class="BoundingBox" stroke="none" fill="none" x="-219" y="5200" width="17106" height="8001"/>
         <path fill="rgb(17,17,17)" fill-opacity="0.871" stroke="rgb(255,255,255)" stroke-opacity="0.871" d="M -103,7700 L 5213,5200 8795,5200 13419,7000 16886,13200 -219,13155 -219,11900 -103,7700 Z"/>
        </g>
       </g>
       <g class="com.sun.star.drawing.PolyPolygonShape">
        <g id="id6">
         <rect class="BoundingBox" stroke="none" fill="none" x="5617" y="7400" width="2518" height="4301"/>
         <path fill="rgb(28,28,28)" stroke="none" d="M 6732,11700 L 6732,10696 5617,10696 6098,9880 5669,9880 6242,8970 5954,8970 6901,7400 7848,8970 7508,8970 8081,9880 7652,9880 8133,10696 7044,10696 7044,11700 6732,11700 Z"/>
        </g>
       </g>
       <g class="com.sun.star.drawing.PolyPolygonShape">
        <g id="id7">
         <rect class="BoundingBox" stroke="none" fill="none" x="-183" y="7355" width="12772" height="5902"/>
         <path fill="rgb(28,28,28)" fill-opacity="0.898" stroke="rgb(255,255,255)" stroke-opacity="0.898" d="M -183,7355 L 1394,7357 2632,7662 5695,10916 9306,11831 12588,13255 -183,13155 -183,7355 Z"/>
        </g>
       </g>
       <g class="com.sun.star.drawing.PolyPolygonShape">
        <g id="id8">
         <rect class="BoundingBox" stroke="none" fill="none" x="-401" y="3699" width="2409" height="3802"/>
         <path fill="rgb(28,28,28)" stroke="none" d="M 667,7500 L 667,6613 -400,6613 60,5892 -350,5892 198,5087 -77,5087 828,3700 1734,5087 1409,5087 1957,5892 1547,5892 2007,6613 965,6613 965,7500 667,7500 Z"/>
        </g>
       </g>
       <g class="com.sun.star.drawing.PolyPolygonShape">
        <g id="id9">
         <rect class="BoundingBox" stroke="none" fill="none" x="9730" y="6900" width="18316" height="6301"/>
         <path fill="rgb(28,28,28)" stroke="none" d="M 28044,6900 L 22859,8084 21108,8760 19795,9775 16295,11340 12028,12228 9731,13200 28044,13158 28044,6900 Z"/>
        </g>
       </g>
       <g class="com.sun.star.drawing.PolyPolygonShape">
        <g id="id10">
         <rect class="BoundingBox" stroke="none" fill="none" x="26403" y="4499" width="1533" height="2902"/>
         <path fill="rgb(28,28,28)" stroke="none" d="M 27082,7400 L 27082,6723 26403,6723 26696,6172 26435,6172 26784,5559 26609,5559 27185,4500 27761,5559 27554,5559 27903,6172 27642,6172 27935,6723 27272,6723 27272,7400 27082,7400 Z"/>
        </g>
       </g>
       <g class="com.sun.star.drawing.PolyPolygonShape">
        <g id="id11">
         <rect class="BoundingBox" stroke="none" fill="none" x="25418" y="4699" width="1534" height="2902"/>
         <path fill="rgb(28,28,28)" stroke="none" d="M 26098,7600 L 26098,6923 25419,6923 25711,6372 25450,6372 25799,5759 25624,5759 26200,4700 26776,5759 26570,5759 26919,6372 26657,6372 26950,6923 26287,6923 26287,7600 26098,7600 Z"/>
        </g>
       </g>
       <g class="com.sun.star.drawing.PolyPolygonShape">
        <g id="id12">
         <rect class="BoundingBox" stroke="none" fill="none" x="24473" y="6100" width="1153" height="1843"/>
         <path fill="rgb(28,28,28)" stroke="none" d="M 24984,7941 L 24984,7511 24473,7511 24693,7162 24497,7162 24759,6772 24628,6772 25061,6100 25494,6772 25338,6772 25601,7162 25404,7162 25624,7511 25126,7511 25126,7941 24984,7941 Z"/>
        </g>
       </g>
       <g class="com.sun.star.drawing.PolyPolygonShape">
        <g id="id13">
         <rect class="BoundingBox" stroke="none" fill="none" x="6054" y="3688" width="17937" height="9468"/>
         <defs>
          <mask id="mask1">
           <g>
            <defs>
             <linearGradient id="gradient1" x1="15128" y1="3688" x2="15128" y2="12943" gradientUnits="userSpaceOnUse">
              <stop offset="0.5" style="stop-color:rgb(117,117,117)"/>
              <stop offset="0.5" style="stop-color:rgb(117,117,117)"/>
              <stop offset="1" style="stop-color:rgb(117,117,117)"/>
              <stop offset="1" style="stop-color:rgb(117,117,117)"/>
             </linearGradient>
            </defs>
            <path style="fill:url(#gradient1)" d="M 6267,3688 L 23990,3688 23990,12943 6267,12943 6267,3688 Z"/>
           </g>
          </mask>
         </defs>
         <g style="mask:url(#mask1)">
          <path fill="rgb(51,51,51)" stroke="none" d="M 6267,12943 L 7470,11052 9986,8365 11409,6574 12940,4484 15456,3688 17754,5181 19614,7271 21583,8664 23990,12943 6267,12943 Z"/>
         </g>
         <path fill="rgb(28,28,28)" stroke="none" d="M 6055,13155 L 7258,11264 9774,8577 11197,6786 12728,4696 15244,3900 17542,5393 19402,7483 21371,8876 23778,13155 6055,13155 Z"/>
        </g>
       </g>
       <g class="com.sun.star.drawing.PolyPolygonShape">
        <g id="id14">
         <rect class="BoundingBox" stroke="none" fill="none" x="23830" y="6500" width="934" height="1502"/>
         <path fill="rgb(28,28,28)" stroke="none" d="M 24243,8000 L 24243,7650 23830,7650 24008,7365 23849,7365 24062,7048 23955,7048 24306,6500 24656,7048 24531,7048 24743,7365 24584,7365 24762,7650 24359,7650 24359,8000 24243,8000 Z"/>
        </g>
       </g>
       <g class="com.sun.star.drawing.PolyPolygonShape">
        <g id="id15">
         <rect class="BoundingBox" stroke="none" fill="none" x="22079" y="6899" width="934" height="1502"/>
         <path fill="rgb(28,28,28)" stroke="none" d="M 22493,8400 L 22493,8050 22080,8050 22258,7765 22099,7765 22311,7448 22205,7448 22555,6900 22906,7448 22780,7448 22993,7765 22834,7765 23012,8050 22608,8050 22608,8400 22493,8400 Z"/>
        </g>
       </g>
       <g class="com.sun.star.drawing.PolyPolygonShape">
        <g id="id16">
         <rect class="BoundingBox" stroke="none" fill="none" x="19511" y="6358" width="1152" height="1843"/>
         <path fill="rgb(28,28,28)" stroke="none" d="M 20021,8200 L 20021,7770 19511,7770 19731,7421 19535,7421 19797,7031 19665,7031 20098,6359 20531,7031 20376,7031 20638,7421 20442,7421 20662,7770 20164,7770 20164,8200 20021,8200 Z"/>
        </g>
       </g>
       <g class="com.sun.star.drawing.PolyPolygonShape">
        <g id="id17">
         <rect class="BoundingBox" stroke="none" fill="none" x="14587" y="2400" width="987" height="1801"/>
         <path fill="rgb(28,28,28)" stroke="none" d="M 15024,4200 L 15024,3780 14588,3780 14776,3438 14608,3438 14833,3057 14720,3057 15090,2400 15461,3057 15328,3057 15552,3438 15384,3438 15573,3780 15146,3780 15146,4200 15024,4200 Z"/>
        </g>
       </g>
       <g class="com.sun.star.drawing.PolyPolygonShape">
        <g id="id18">
         <rect class="BoundingBox" stroke="none" fill="none" x="22136" y="5000" width="1862" height="3471"/>
         <path fill="rgb(28,28,28)" stroke="none" d="M 22961,8470 L 22961,7660 22137,7660 22492,7001 22175,7001 22599,6267 22386,6267 23086,5000 23785,6267 23534,6267 23958,7001 23641,7001 23996,7660 23191,7660 23191,8470 22961,8470 Z"/>
        </g>
       </g>
       <g class="com.sun.star.drawing.PolyPolygonShape">
        <g id="id19">
         <rect class="BoundingBox" stroke="none" fill="none" x="20661" y="7159" width="1153" height="1842"/>
         <path fill="rgb(28,28,28)" stroke="none" d="M 21172,9000 L 21172,8570 20662,8570 20882,8221 20686,8221 20948,7831 20816,7831 21249,7159 21682,7831 21527,7831 21789,8221 21593,8221 21813,8570 21314,8570 21314,9000 21172,9000 Z"/>
        </g>
       </g>
       <g class="com.sun.star.drawing.PolyPolygonShape">
        <g id="id20">
         <rect class="BoundingBox" stroke="none" fill="none" x="803" y="4400" width="1971" height="3301"/>
         <path fill="rgb(28,28,28)" stroke="none" d="M 1676,7700 L 1676,6929 803,6929 1180,6303 844,6303 1293,5605 1067,5605 1808,4400 2549,5605 2283,5605 2732,6303 2396,6303 2773,6929 1920,6929 1920,7700 1676,7700 Z"/>
        </g>
       </g>
       <g class="com.sun.star.drawing.PolyPolygonShape">
        <g id="id21">
         <rect class="BoundingBox" stroke="none" fill="none" x="6107" y="4000" width="824" height="1202"/>
         <path fill="rgb(28,28,28)" stroke="none" d="M 6472,5200 L 6472,4920 6107,4920 6264,4692 6124,4692 6312,4438 6217,4438 6527,4000 6837,4438 6725,4438 6913,4692 6773,4692 6930,4920 6574,4920 6574,5200 6472,5200 Z"/>
        </g>
       </g>
       <g class="com.sun.star.drawing.PolyPolygonShape">
        <g id="id22">
         <rect class="BoundingBox" stroke="none" fill="none" x="3538" y="6700" width="1971" height="3301"/>
         <path fill="rgb(28,28,28)" stroke="none" d="M 4411,10000 L 4411,9229 3538,9229 3915,8603 3579,8603 4028,7905 3802,7905 4543,6700 5284,7905 5018,7905 5467,8603 5131,8603 5508,9229 4655,9229 4655,10000 4411,10000 Z"/>
        </g>
       </g>
       <g class="com.sun.star.drawing.PolyPolygonShape">
        <g id="id23">
         <rect class="BoundingBox" stroke="none" fill="none" x="6763" y="2900" width="1262" height="2401"/>
         <path fill="rgb(28,28,28)" stroke="none" d="M 7322,5300 L 7322,4740 6764,4740 7004,4284 6790,4284 7077,3776 6932,3776 7407,2900 7881,3776 7711,3776 7998,4284 7783,4284 8024,4740 7478,4740 7478,5300 7322,5300 Z"/>
        </g>
       </g>
       <g class="com.sun.star.drawing.PolyPolygonShape">
        <g id="id24">
         <rect class="BoundingBox" stroke="none" fill="none" x="7679" y="4600" width="565" height="701"/>
         <path fill="rgb(28,28,28)" stroke="none" d="M 7929,5300 L 7929,5137 7679,5137 7787,5004 7691,5004 7819,4856 7755,4856 7967,4600 8179,4856 8103,4856 8231,5004 8135,5004 8243,5137 7999,5137 7999,5300 7929,5300 Z"/>
        </g>
       </g>
       <g class="com.sun.star.drawing.PolyPolygonShape">
        <g id="id25">
         <rect class="BoundingBox" stroke="none" fill="none" x="6759" y="4500" width="565" height="701"/>
         <path fill="rgb(28,28,28)" stroke="none" d="M 7009,5200 L 7009,5037 6759,5037 6867,4904 6771,4904 6899,4756 6835,4756 7047,4500 7259,4756 7183,4756 7311,4904 7215,4904 7323,5037 7079,5037 7079,5200 7009,5200 Z"/>
        </g>
       </g>
       <g class="com.sun.star.drawing.PolyPolygonShape">
        <g id="id26">
         <rect class="BoundingBox" stroke="none" fill="none" x="7966" y="3000" width="1263" height="2401"/>
         <path fill="rgb(28,28,28)" stroke="none" d="M 8526,5400 L 8526,4840 7967,4840 8208,4384 7993,4384 8280,3876 8136,3876 8610,3000 9084,3876 8914,3876 9201,4384 8986,4384 9227,4840 8682,4840 8682,5400 8526,5400 Z"/>
        </g>
       </g>
       <g class="com.sun.star.drawing.PolyPolygonShape">
        <g id="id27">
         <rect class="BoundingBox" stroke="none" fill="none" x="9227" y="4300" width="824" height="1202"/>
         <path fill="rgb(28,28,28)" stroke="none" d="M 9592,5500 L 9592,5220 9227,5220 9385,4992 9244,4992 9432,4738 9338,4738 9647,4300 9957,4738 9846,4738 10033,4992 9893,4992 10050,5220 9694,5220 9694,5500 9592,5500 Z"/>
        </g>
       </g>
       <g class="com.sun.star.drawing.PolyPolygonShape">
        <g id="id28">
         <rect class="BoundingBox" stroke="none" fill="none" x="3664" y="4555" width="825" height="1202"/>
         <path fill="rgb(28,28,28)" stroke="none" d="M 4030,5755 L 4030,5475 3665,5475 3822,5247 3682,5247 3869,4993 3775,4993 4085,4555 4394,4993 4283,4993 4471,5247 4330,5247 4488,5475 4131,5475 4131,5755 4030,5755 Z"/>
        </g>
       </g>
       <g class="com.sun.star.drawing.PolyPolygonShape">
        <g id="id29">
         <rect class="BoundingBox" stroke="none" fill="none" x="2772" y="5655" width="566" height="701"/>
         <path fill="rgb(28,28,28)" stroke="none" d="M 3023,6355 L 3023,6192 2773,6192 2880,6059 2784,6059 2913,5911 2848,5911 3060,5655 3272,5911 3196,5911 3325,6059 3229,6059 3336,6192 3092,6192 3092,6355 3023,6355 Z"/>
        </g>
       </g>
       <g class="com.sun.star.drawing.PolyPolygonShape">
        <g id="id30">
         <rect class="BoundingBox" stroke="none" fill="none" x="4487" y="4755" width="565" height="701"/>
         <path fill="rgb(28,28,28)" stroke="none" d="M 4737,5455 L 4737,5292 4488,5292 4595,5159 4499,5159 4627,5011 4563,5011 4775,4755 4987,5011 4911,5011 5039,5159 4943,5159 5051,5292 4807,5292 4807,5455 4737,5455 Z"/>
        </g>
       </g>
       <g class="com.sun.star.drawing.PolyPolygonShape">
        <g id="id31">
         <rect class="BoundingBox" stroke="none" fill="none" x="25162" y="700" width="659" height="1002"/>
         <path fill="rgb(51,51,51)" stroke="none" d="M 25454,1700 L 25454,1466 25163,1466 25288,1277 25176,1277 25326,1065 25251,1065 25498,700 25745,1065 25656,1065 25806,1277 25694,1277 25819,1466 25535,1466 25535,1700 25454,1700 Z"/>
        </g>
       </g>
       <g class="com.sun.star.drawing.PolyPolygonShape">
        <g id="id32">
         <rect class="BoundingBox" stroke="none" fill="none" x="24105" y="800" width="549" height="1001"/>
         <path fill="rgb(51,51,51)" stroke="none" d="M 24348,1800 L 24348,1566 24106,1566 24210,1377 24117,1377 24242,1165 24179,1165 24385,800 24591,1165 24517,1165 24642,1377 24548,1377 24653,1566 24416,1566 24416,1800 24348,1800 Z"/>
        </g>
       </g>
       <g class="com.sun.star.drawing.PolyPolygonShape">
        <g id="id33">
         <rect class="BoundingBox" stroke="none" fill="none" x="26840" y="1000" width="659" height="1001"/>
         <path fill="rgb(51,51,51)" stroke="none" d="M 27132,2000 L 27132,1766 26841,1766 26966,1577 26854,1577 27004,1365 26929,1365 27176,1000 27423,1365 27334,1365 27484,1577 27372,1577 27497,1766 27213,1766 27213,2000 27132,2000 Z"/>
        </g>
       </g>
       <g class="com.sun.star.drawing.PolyPolygonShape">
        <g id="id34">
         <rect class="BoundingBox" stroke="none" fill="none" x="22355" y="1300" width="549" height="801"/>
         <path fill="rgb(51,51,51)" stroke="none" d="M 22598,2100 L 22598,1913 22355,1913 22460,1761 22367,1761 22491,1592 22429,1592 22635,1300 22840,1592 22767,1592 22891,1761 22798,1761 22902,1913 22666,1913 22666,2100 22598,2100 Z"/>
        </g>
       </g>
       <g class="com.sun.star.drawing.PolyPolygonShape">
        <g id="id35">
         <rect class="BoundingBox" stroke="none" fill="none" x="24652" y="700" width="659" height="1002"/>
         <path fill="rgb(51,51,51)" stroke="none" d="M 24944,1700 L 24944,1466 24653,1466 24778,1277 24666,1277 24816,1065 24741,1065 24988,700 25235,1065 25146,1065 25296,1277 25184,1277 25309,1466 25025,1466 25025,1700 24944,1700 Z"/>
        </g>
       </g>
       <g class="com.sun.star.drawing.PolyPolygonShape">
        <g id="id36">
         <rect class="BoundingBox" stroke="none" fill="none" x="23558" y="500" width="878" height="1501"/>
         <path fill="rgb(51,51,51)" stroke="none" d="M 23947,2000 L 23947,1650 23559,1650 23726,1365 23577,1365 23776,1048 23676,1048 24005,500 24335,1048 24217,1048 24416,1365 24267,1365 24434,1650 24055,1650 24055,2000 23947,2000 Z"/>
        </g>
       </g>
      </g>
     </g>
    </g>
   </g>
  </g>
 </g>
</svg>